<svg width="1920" height="1080" viewBox="0 0 1920 1080" fill="none" xmlns="http://www.w3.org/2000/svg">
<defs>
  <radialGradient id="g1" cx="0" cy="0" r="1" gradientUnits="userSpaceOnUse" gradientTransform="translate(980 430) rotate(90) scale(520 820)">
    <stop stop-color="#1D5D86" stop-opacity=".28"/>
    <stop offset="1" stop-color="#071018" stop-opacity="0"/>
  </radialGradient>
  <linearGradient id="bg" x1="960" y1="0" x2="960" y2="1080" gradientUnits="userSpaceOnUse">
    <stop stop-color="#09131F"/>
    <stop offset=".54" stop-color="#070A0E"/>
    <stop offset="1" stop-color="#040609"/>
  </linearGradient>
  <filter id="blur"><feGaussianBlur stdDeviation="60"/></filter>
  <pattern id="grid" width="64" height="64" patternUnits="userSpaceOnUse">
    <path d="M64 0H0V64" stroke="#FFFFFF" stroke-opacity=".045"/>
  </pattern>
</defs>
<rect width="1920" height="1080" fill="url(#bg)"/>
<ellipse cx="960" cy="430" rx="760" ry="450" fill="url(#g1)"/>
<circle cx="280" cy="250" r="190" fill="#0EA5E9" opacity=".06" filter="url(#blur)"/>
<circle cx="1630" cy="740" r="260" fill="#EF4444" opacity=".055" filter="url(#blur)"/>
<path d="M0 790L170 660L300 735L470 560L650 700L840 515L1030 730L1215 590L1385 690L1560 535L1750 680L1920 580V1080H0V790Z" fill="#0D1922" opacity=".82"/>
<path d="M0 880L250 760L430 840L650 700L860 845L1090 720L1280 835L1510 710L1710 835L1920 745V1080H0V880Z" fill="#0A1118" opacity=".95"/>
<text x="960" y="570" text-anchor="middle" fill="#DFF6FF" fill-opacity=".028" font-family="Arial, Helvetica, sans-serif" font-size="250" font-weight="900" letter-spacing="-12">HARDLYWORLD</text>
<text x="960" y="650" text-anchor="middle" fill="#FDBA74" fill-opacity=".035" font-family="Arial, Helvetica, sans-serif" font-size="70" font-weight="900" letter-spacing="22">АНАРХИЯ</text>
<rect width="1920" height="1080" fill="url(#grid)"/>
</svg>